<?xml version="1.0" encoding="UTF-8" standalone="no"?>
<svg
   viewBox="0 0 3.072 3.072"
   width="32"
   height="32"
   version="1.1"
   id="svg107"
   sodipodi:docname="haskell.svg"
   inkscape:version="1.2 (dc2aedaf03, 2022-05-15)"
   xmlns:inkscape="http://www.inkscape.org/namespaces/inkscape"
   xmlns:sodipodi="http://sodipodi.sourceforge.net/DTD/sodipodi-0.dtd"
   xmlns="http://www.w3.org/2000/svg"
   xmlns:svg="http://www.w3.org/2000/svg">
  <defs
     id="defs111" />
  <sodipodi:namedview
     id="namedview109"
     pagecolor="#505050"
     bordercolor="#ffffff"
     borderopacity="1"
     inkscape:showpageshadow="0"
     inkscape:pageopacity="0"
     inkscape:pagecheckerboard="1"
     inkscape:deskcolor="#505050"
     showgrid="false"
     inkscape:zoom="1.642"
     inkscape:cx="181.48599"
     inkscape:cy="176.91839"
     inkscape:window-width="1920"
     inkscape:window-height="1030"
     inkscape:window-x="0"
     inkscape:window-y="0"
     inkscape:window-maximized="1"
     inkscape:current-layer="svg107" />
  <g
     id="g275"
     transform="matrix(0.06678261,0,0,0.06678261,-0.06678264,-0.13356525)">
    <polygon
       fill="#453a62"
       points="9,43 5,43 1,43 13,25 1,7 5,7 9,7 21,25 "
       id="polygon99" />
    <polygon
       fill="#5e5086"
       points="36,43 40,43 44,43 20,7 16,7 12,7 24,25 12,43 16,43 20,43 28.16,30.76 "
       id="polygon101" />
    <polygon
       fill="#8f4e8b"
       points="34.338,24 47,24 47,18 30.338,18 "
       id="polygon103" />
    <polygon
       fill="#8f4e8b"
       points="40.338,33 47,33 47,27 36.338,27 "
       id="polygon105" />
  </g>
</svg>
