<?xml version="1.0" encoding="UTF-8" standalone="no"?>
<svg
   viewBox="0 -3 47.999976 47.999976"
   width="32"
   height="32"
   version="1.1"
   id="svg107"
   sodipodi:docname="haskell.svg"
   inkscape:version="1.2 (dc2aedaf03, 2022-05-15)"
   xmlns:inkscape="http://www.inkscape.org/namespaces/inkscape"
   xmlns:sodipodi="http://sodipodi.sourceforge.net/DTD/sodipodi-0.dtd"
   xmlns="http://www.w3.org/2000/svg"
   xmlns:svg="http://www.w3.org/2000/svg">
  <defs
     id="defs111" />
  <sodipodi:namedview
     id="namedview109"
     pagecolor="#505050"
     bordercolor="#ffffff"
     borderopacity="1"
     inkscape:showpageshadow="0"
     inkscape:pageopacity="0"
     inkscape:pagecheckerboard="1"
     inkscape:deskcolor="#505050"
     showgrid="false"
     inkscape:zoom="13.136"
     inkscape:cx="12.484775"
     inkscape:cy="20.325822"
     inkscape:window-width="1920"
     inkscape:window-height="1005"
     inkscape:window-x="0"
     inkscape:window-y="0"
     inkscape:window-maximized="1"
     inkscape:current-layer="svg107" />
  <g
     id="g275"
     transform="matrix(1.0434777,0,0,1.0434777,-1.0434768,-5.0869545)">
    <polygon
       fill="#453a62"
       points="1,43 13,25 1,7 5,7 9,7 21,25 9,43 5,43 "
       id="polygon99" />
    <polygon
       fill="#5e5086"
       points="16,7 12,7 24,25 12,43 16,43 20,43 28.16,30.76 36,43 40,43 44,43 20,7 "
       id="polygon101" />
    <polygon
       fill="#8f4e8b"
       points="47,18 30.338,18 34.338,24 47,24 "
       id="polygon103" />
    <polygon
       fill="#8f4e8b"
       points="47,27 36.338,27 40.338,33 47,33 "
       id="polygon105" />
  </g>
</svg>
