<?xml version="1.0" encoding="UTF-8" standalone="no"?>
<!-- Generator: Adobe Illustrator 19.0.0, SVG Export Plug-In . SVG Version: 6.00 Build 0)  -->

<svg
   version="1.1"
   id="Layer_1"
   x="0px"
   y="0px"
   viewBox="0 0 48 48"
   xml:space="preserve"
   sodipodi:docname="javascript.svg"
   width="31.999998"
   height="31.999998"
   inkscape:version="1.2 (dc2aedaf03, 2022-05-15)"
   xmlns:inkscape="http://www.inkscape.org/namespaces/inkscape"
   xmlns:sodipodi="http://sodipodi.sourceforge.net/DTD/sodipodi-0.dtd"
   xmlns="http://www.w3.org/2000/svg"
   xmlns:svg="http://www.w3.org/2000/svg"><defs
   id="defs249" /><sodipodi:namedview
   id="namedview247"
   pagecolor="#505050"
   bordercolor="#ffffff"
   borderopacity="1"
   inkscape:showpageshadow="0"
   inkscape:pageopacity="0"
   inkscape:pagecheckerboard="1"
   inkscape:deskcolor="#505050"
   showgrid="false"
   inkscape:zoom="24.875001"
   inkscape:cx="15.999999"
   inkscape:cy="15.999999"
   inkscape:window-width="1920"
   inkscape:window-height="1005"
   inkscape:window-x="0"
   inkscape:window-y="0"
   inkscape:window-maximized="1"
   inkscape:current-layer="Layer_1" />
<style
   type="text/css"
   id="style240">
	.st0{fill:#F7DF1E;}
</style>
<g
   id="XMLID_1_"
   transform="matrix(0.13150686,0,0,0.13150686,-8.8767128,-8.8767128)">
	<rect
   id="XMLID_2_"
   x="67.5"
   y="67.5"
   class="st0"
   width="365"
   height="365" />
	<path
   id="XMLID_3_"
   d="m 163.5,372.5 27.9,-16.9 c 5.4,9.6 10.3,17.6 22,17.6 11.3,0 18.4,-4.4 18.4,-21.6 V 235.1 h 34.3 v 117.1 c 0,35.5 -20.8,51.7 -51.2,51.7 -27.4,0 -43.3,-14.2 -51.4,-31.4" />
	<path
   id="XMLID_4_"
   d="m 284.8,368.8 27.9,-16.2 c 7.4,12 16.9,20.8 33.8,20.8 14.2,0 23.3,-7.1 23.3,-16.9 0,-11.8 -9.3,-15.9 -25,-22.8 L 336.2,330 C 311.5,319.5 295,306.2 295,278.3 c 0,-25.7 19.6,-45.3 50.2,-45.3 21.8,0 37.5,7.6 48.8,27.4 l -26.7,17.1 c -5.9,-10.5 -12.2,-14.7 -22,-14.7 -10,0 -16.4,6.4 -16.4,14.7 0,10.3 6.4,14.5 21.1,20.8 l 8.6,3.7 c 29.2,12.5 45.6,25.2 45.6,53.9 0,30.9 -24.3,47.8 -56.8,47.8 -32,0.2 -52.6,-15 -62.6,-34.9" />
</g>
</svg>
