<?xml version="1.0" encoding="UTF-8" standalone="no"?>
<svg
   width="32"
   height="31.999998"
   viewBox="0 0 48 47.999997"
   version="1.1"
   id="svg503"
   sodipodi:docname="laravel.svg"
   inkscape:version="1.2 (dc2aedaf03, 2022-05-15)"
   xmlns:inkscape="http://www.inkscape.org/namespaces/inkscape"
   xmlns:sodipodi="http://sodipodi.sourceforge.net/DTD/sodipodi-0.dtd"
   xmlns="http://www.w3.org/2000/svg"
   xmlns:svg="http://www.w3.org/2000/svg"
   xmlns:rdf="http://www.w3.org/1999/02/22-rdf-syntax-ns#"
   xmlns:cc="http://creativecommons.org/ns#"
   xmlns:dc="http://purl.org/dc/elements/1.1/">
  <defs
     id="defs507" />
  <sodipodi:namedview
     id="namedview505"
     pagecolor="#505050"
     bordercolor="#ffffff"
     borderopacity="1"
     inkscape:showpageshadow="0"
     inkscape:pageopacity="0"
     inkscape:pagecheckerboard="1"
     inkscape:deskcolor="#505050"
     showgrid="false"
     inkscape:zoom="24.875001"
     inkscape:cx="15.999999"
     inkscape:cy="15.999999"
     inkscape:window-width="1920"
     inkscape:window-height="1005"
     inkscape:window-x="0"
     inkscape:window-y="0"
     inkscape:window-maximized="1"
     inkscape:current-layer="svg503" />
  <title
     id="title499">Logomark</title>
  <path
     d="m 47.287079,10.858852 a 0.75967781,0.75967781 0 0 1 0.0263,0.196257 V 21.35818 a 0.75122651,0.75122651 0 0 1 -0.377492,0.65169 l -8.647554,4.978754 v 9.868298 c 0,0.268564 -0.14274,0.516468 -0.375614,0.651688 L 19.86168,47.899951 c -0.04131,0.02348 -0.08638,0.03851 -0.13146,0.05447 -0.0169,0.0057 -0.03286,0.01596 -0.0507,0.02066 a 0.75592167,0.75592167 0 0 1 -0.385004,0 c -0.02066,-0.0057 -0.03944,-0.01691 -0.05916,-0.02442 -0.04131,-0.01503 -0.08451,-0.02817 -0.123945,-0.05071 L 1.0641118,37.50861 A 0.75216554,0.75216554 0 0 1 0.68662047,36.856922 V 5.9477086 c 0,-0.067611 0.00939,-0.1333425 0.0262929,-0.1971971 0.005634,-0.021597 0.0187806,-0.041317 0.0262929,-0.062914 0.014085,-0.03944 0.0272319,-0.079818 0.0478907,-0.1164405 0.014085,-0.024415 0.0347442,-0.044135 0.0516468,-0.06667 0.0215978,-0.03005 0.0413175,-0.061037 0.0666714,-0.08733 C 0.92701297,5.395558 0.95518397,5.379595 0.97959867,5.360815 1.0068306,5.338277 1.0312455,5.313863 1.0622336,5.296022 h 9.39e-4 L 10.087281,0.10034924 a 0.75310458,0.75310458 0 0 1 0.751226,0 l 9.024109,5.19567036 h 0.002 c 0.03005,0.01878 0.05541,0.042256 0.08263,0.063853 0.02442,0.01878 0.05165,0.035684 0.07325,0.056342 0.0263,0.027233 0.04508,0.058219 0.06761,0.088269 0.01596,0.022536 0.03756,0.042257 0.05072,0.066671 0.0216,0.037561 0.03381,0.077001 0.04883,0.1164405 0.0075,0.021599 0.02065,0.041317 0.0263,0.063854 a 0.75967781,0.75967781 0 0 1 0.02629,0.1962581 V 25.25329 l 7.519776,-4.329882 V 11.05417 c 0,-0.06573 0.0095,-0.132403 0.0263,-0.195318 0.0066,-0.02254 0.01878,-0.04226 0.0263,-0.06385 0.01503,-0.03944 0.02817,-0.07982 0.04882,-0.116441 0.0141,-0.02441 0.03474,-0.04413 0.05072,-0.06667 0.02255,-0.03005 0.04131,-0.06104 0.06761,-0.08733 0.0216,-0.0216 0.04883,-0.03756 0.07325,-0.05634 0.02817,-0.02254 0.05259,-0.04695 0.08263,-0.06479 h 9.39e-4 l 9.025048,-5.19567 a 0.75216554,0.75216554 0 0 1 0.751227,0 l 9.024109,5.19567 c 0.03192,0.01878 0.05634,0.04226 0.08451,0.06385 0.02347,0.01878 0.05071,0.03568 0.0723,0.05634 0.02629,0.02723 0.04508,0.05822 0.06761,0.08827 0.01691,0.02254 0.03756,0.04226 0.05071,0.06667 0.0216,0.03662 0.03381,0.077 0.04883,0.116441 0.0084,0.0216 0.02066,0.04132 0.0263,0.06385 z M 45.80904,20.923408 V 12.35567 l -3.157968,1.817968 -4.362747,2.511914 v 8.567738 l 7.521654,-4.329882 z M 36.784931,36.42215 v -8.573372 l -4.29138,2.450875 -12.254383,6.993919 v 8.654131 z M 2.1909516,7.2482695 V 36.42215 l 16.5438854,9.524614 v -8.652253 l -8.642861,-4.891423 -0.0028,-0.002 -0.0037,-0.002 c -0.02911,-0.01691 -0.05352,-0.04131 -0.08076,-0.06198 -0.023476,-0.01878 -0.050707,-0.03381 -0.071367,-0.05447 l -0.00188,-0.0029 c -0.024415,-0.02347 -0.041317,-0.05259 -0.061976,-0.07888 -0.01878,-0.02535 -0.041317,-0.04695 -0.056342,-0.07325 l -9.39e-4,-0.0028 c -0.016902,-0.02817 -0.027233,-0.06198 -0.03944,-0.0939 -0.01221,-0.02817 -0.028172,-0.05446 -0.035684,-0.08451 v -9.39e-4 c -0.00939,-0.03569 -0.011265,-0.07325 -0.015024,-0.109875 -0.00375,-0.02817 -0.011265,-0.05634 -0.011265,-0.08451 v -0.0017 -20.171369 L 5.34892,9.0652985 2.1909516,7.2492085 Z M 10.463833,1.6197049 2.9449952,5.9477086 10.461955,10.275712 17.979854,5.9467695 10.461955,1.6197049 Z m 3.910134,27.0103481 4.361809,-2.510975 V 7.2482695 L 15.577807,9.0662375 11.21506,11.578151 V 30.44896 Z m 23.16313,-21.902947 -7.5179,4.328003 7.5179,4.328003 7.51696,-4.328942 z m -0.752166,9.958446 -4.362747,-2.511914 -3.157968,-1.817968 v 8.567738 l 4.361808,2.510974 3.158907,1.818908 z m -17.298868,19.30746 11.027066,-6.295279 5.512124,-3.145761 -7.512264,-4.325186 -8.649434,4.979693 -7.883183,4.538346 z"
     fill="#ff2d20"
     fill-rule="evenodd"
     id="path501"
     style="stroke-width:0.939033" />
  <metadata
     id="metadata509">
    <rdf:RDF>
      <cc:Work
         rdf:about="">
        <dc:title>Logomark</dc:title>
      </cc:Work>
    </rdf:RDF>
  </metadata>
</svg>
