<?xml version="1.0" encoding="UTF-8" standalone="no"?>
<svg
   xml:space="preserve"
   viewBox="0 0 48 48"
   height="32"
   width="32"
   y="0px"
   x="0px"
   id="Layer_1"
   version="1.1"
   sodipodi:docname="rust.svg"
   inkscape:version="1.2 (dc2aedaf03, 2022-05-15)"
   xmlns:inkscape="http://www.inkscape.org/namespaces/inkscape"
   xmlns:sodipodi="http://sodipodi.sourceforge.net/DTD/sodipodi-0.dtd"
   xmlns="http://www.w3.org/2000/svg"
   xmlns:svg="http://www.w3.org/2000/svg"><defs
     id="defs462"><linearGradient
       id="linearGradient2998"
       inkscape:swatch="solid"><stop
         style="stop-color:#000000;stop-opacity:1;"
         offset="0"
         id="stop2996" /></linearGradient></defs><sodipodi:namedview
     id="namedview460"
     pagecolor="#505050"
     bordercolor="#ffffff"
     borderopacity="1"
     inkscape:showpageshadow="0"
     inkscape:pageopacity="0"
     inkscape:pagecheckerboard="1"
     inkscape:deskcolor="#505050"
     showgrid="false"
     inkscape:zoom="23.875"
     inkscape:cx="16"
     inkscape:cy="16"
     inkscape:window-width="1920"
     inkscape:window-height="973"
     inkscape:window-x="0"
     inkscape:window-y="0"
     inkscape:window-maximized="1"
     inkscape:current-layer="Layer_1" /><path
     id="path3"
     d="M 47.6721,23.411169 45.656968,22.16377 c -0.01691,-0.196275 -0.03623,-0.392103 -0.05732,-0.587008 l 1.731714,-1.615196 c 0.176101,-0.16418 0.254988,-0.40724 0.207292,-0.642502 -0.04632,-0.23618 -0.211879,-0.430627 -0.437055,-0.514551 l -2.213712,-0.827776 c -0.05549,-0.191689 -0.113726,-0.382016 -0.17335,-0.571418 l 1.380876,-1.917872 c 0.140788,-0.19491 0.169683,-0.448512 0.07796,-0.670935 -0.09172,-0.221504 -0.292134,-0.380181 -0.529237,-0.419162 l -2.334331,-0.379722 c -0.0908,-0.177019 -0.185271,-0.35129 -0.280669,-0.524182 l 0.980966,-2.153135 c 0.10044,-0.219212 0.0798,-0.474194 -0.05412,-0.673228 C 43.82253,10.467141 43.596429,10.350189 43.3552,10.359361 l -2.36918,0.08255 C 40.863572,10.288733 40.738828,10.13694 40.611793,9.9878937 L 41.156164,7.6802102 C 41.211204,7.4458644 41.1419,7.2005128 40.971342,7.030372 40.802128,6.8606897 40.5563,6.7905223 40.32195,6.8455493 L 38.01468,7.3894497 C 37.865171,7.2628655 37.713374,7.1376772 37.559739,7.0152316 l 0.083,-2.3691376 C 37.651906,4.4062464 37.53496,4.1783215 37.335009,4.0453266 37.134598,3.9114065 36.880985,3.8912329 36.662228,3.990756 L 34.50951,4.9721645 C 34.335692,4.876778 34.161424,4.7823086 33.985317,4.6910424 L 33.60467,2.3562998 C 33.566157,2.1196616 33.407478,1.9187937 33.185499,1.8270732 32.963991,1.734886 32.709922,1.7646981 32.515013,1.905037 L 30.595728,3.2858887 C 30.406789,3.2258162 30.216917,3.168026 30.025217,3.1129868 L 29.197423,0.89885776 c -0.08391,-0.22563244 -0.278375,-0.39118834 -0.514561,-0.43796458 -0.235725,-0.0463177 -0.47833,0.0320943 -0.642054,0.2072867 L 26.425582,2.401236 C 26.230672,2.379677 26.034387,2.359972 25.838561,2.343914 L 24.59114,0.32835881 C 24.465025,0.12428154 24.241679,0 24.001368,0 23.761056,0 23.537712,0.12428154 23.412053,0.32835881 L 22.164632,2.3439145 c -0.196275,0.016098 -0.39257,0.035762 -0.587479,0.057322 L 19.961468,0.66817988 C 19.797736,0.49299568 19.554679,0.4145734 19.319412,0.46089318 19.083228,0.50812791 18.888777,0.67322532 18.804851,0.89885776 L 17.977061,3.1129868 C 17.785372,3.168026 17.595495,3.2262645 17.40609,3.2858887 L 15.487263,1.905037 C 15.292354,1.7642498 15.038283,1.7344377 14.816316,1.827073 14.594808,1.918792 14.435671,2.1196614 14.397146,2.3562996 l -0.380645,2.3347426 c -0.176102,0.09127 -0.350381,0.185271 -0.524192,0.2811221 L 11.339592,3.990756 C 11.120834,3.890785 10.865846,3.911427 10.666808,4.045327 10.466866,4.17833 10.34991,4.4062468 10.359082,4.6460944 l 0.08255,2.3691376 C 10.288454,7.1376792 10.136657,7.2628757 9.9866894,7.3894497 L 7.6794216,6.8455493 C 7.4450697,6.7909787 7.1992555,6.8606286 7.0295712,7.030372 6.8589719,7.2005026 6.7897153,7.4458644 6.8447485,7.6802102 l 0.543452,2.3076835 C 7.262085,10.137402 7.1373409,10.288737 7.0148913,10.44191 L 4.6457089,10.35936 c -0.2389348,-0.0069 -0.4673222,0.107776 -0.6007777,0.307722 -0.13392,0.199026 -0.1540936,0.454016 -0.05457,0.673228 l 0.9814268,2.153135 c -0.095386,0.172882 -0.1898559,0.347161 -0.2811261,0.524182 l -2.334329,0.379722 c -0.2371008,0.03853 -0.4370557,0.197191 -0.5292368,0.419162 -0.091719,0.222423 -0.061906,0.476029 0.077964,0.670935 l 1.3808782,1.917872 c -0.060072,0.189408 -0.1183314,0.379722 -0.1733502,0.571418 l -2.21417183,0.827776 c -0.22471953,0.08393 -0.39027747,0.278371 -0.43705574,0.514551 -0.0467864,0.235721 0.031646,0.478322 0.20729077,0.642502 L 2.400823,21.576761 C 2.379264,21.77167 2.360007,21.967947 2.343501,22.163769 l -2.01513608,1.2474 C 0.12428358,23.537284 0,23.760164 0,24.00093 c 0,0.240765 0.12428154,0.463646 0.32836492,0.589303 L 2.3435008,25.83763 c 0.016506,0.196274 0.035762,0.392105 0.057322,0.58701 l -1.7321717,1.615654 c -0.17565288,0.163712 -0.25406905,0.406779 -0.20729077,0.642042 0.0467661,0.23618 0.21233621,0.430168 0.43705574,0.514551 l 2.21417183,0.827778 c 0.055039,0.191689 0.1132777,0.382014 0.1733502,0.571417 l -1.3808782,1.918332 c -0.1403389,0.195357 -0.1701306,0.44897 -0.077964,0.670474 0.092187,0.222423 0.2925945,0.3811 0.5296953,0.419162 l 2.3338705,0.379722 c 0.09125,0.177019 0.1848227,0.35129 0.2811261,0.525101 L 3.990361,36.661091 c -0.099971,0.218753 -0.079329,0.473277 0.05457,0.673227 0.1339201,0.200412 0.3618429,0.317353 0.6007777,0.307721 l 2.3682654,-0.083 c 0.1233646,0.154094 0.2476502,0.30497 0.3742262,0.454933 l -0.543452,2.308142 c -0.055039,0.233887 0.014264,0.478322 0.1848227,0.648463 0.1692136,0.171047 0.4154985,0.239389 0.6498504,0.184354 l 2.307268,-0.543441 c 0.1499566,0.127501 0.3017666,0.251314 0.4549406,0.373303 l -0.08255,2.369594 c -0.0092,0.23985 0.107776,0.467316 0.307726,0.601228 0.199026,0.133451 0.454026,0.153625 0.672784,0.05365 l 2.152717,-0.980947 c 0.173351,0.0963 0.347626,0.189855 0.524192,0.281122 l 0.380645,2.333365 c 0.03853,0.237557 0.197191,0.438423 0.41917,0.529685 0.221508,0.09219 0.47604,0.06237 0.670947,-0.0775 l 1.91791,-1.381767 c 0.189407,0.06007 0.37973,0.11878 0.57143,0.173819 l 0.82779,2.213212 c 0.08391,0.224713 0.278377,0.391186 0.514561,0.437048 0.235725,0.0477 0.478332,-0.03118 0.642056,-0.207289 l 1.615684,-1.732139 c 0.19491,0.02248 0.391195,0.04126 0.58748,0.05871 l 1.24742,2.015097 c 0.125647,0.203162 0.349004,0.328359 0.589316,0.328359 0.24031,0 0.463654,-0.12473 0.589772,-0.328359 l 1.24742,-2.015097 c 0.196275,-0.01752 0.392114,-0.03623 0.587021,-0.05871 l 1.615226,1.732139 c 0.163712,0.176101 0.406788,0.254982 0.642054,0.207289 0.236186,-0.04632 0.430635,-0.212335 0.514562,-0.437048 l 0.827793,-2.213212 c 0.19169,-0.05504 0.382023,-0.113726 0.571428,-0.173819 l 1.918368,1.381767 c 0.19491,0.13987 0.448979,0.169682 0.670487,0.0775 0.221968,-0.09127 0.380649,-0.292587 0.41917,-0.529685 l 0.380648,-2.333365 c 0.176101,-0.09127 0.350378,-0.186188 0.524193,-0.281122 l 2.152718,0.980947 c 0.218757,0.09997 0.473284,0.0798 0.672781,-0.05365 0.199942,-0.13392 0.31644,-0.36092 0.307726,-0.601228 l -0.08255,-2.369594 c 0.153176,-0.122448 0.304976,-0.24581 0.454482,-0.373303 l 2.30727,0.543444 c 0.23435,0.05504 0.480164,-0.01325 0.649392,-0.184354 0.170599,-0.170131 0.239852,-0.414576 0.184823,-0.648463 l -0.543454,-2.308142 c 0.126563,-0.149957 0.251318,-0.300843 0.373309,-0.454933 l 2.36918,0.083 c 0.238937,0.0096 0.467327,-0.107307 0.600782,-0.307721 0.13392,-0.199942 0.154542,-0.454474 0.05412,-0.673227 l -0.980966,-2.152218 c 0.09586,-0.173819 0.189856,-0.34808 0.28067,-0.525101 l 2.334327,-0.379722 c 0.237561,-0.03807 0.437514,-0.196743 0.529236,-0.419162 0.09172,-0.221504 0.06282,-0.47511 -0.07796,-0.670474 l -1.380877,-1.918332 c 0.05963,-0.189407 0.117863,-0.379722 0.173351,-0.571417 l 2.213713,-0.827778 c 0.225176,-0.08438 0.391194,-0.278371 0.437056,-0.514551 0.0477,-0.235721 -0.03118,-0.478322 -0.207293,-0.642042 L 45.59918,26.42464 c 0.02109,-0.194909 0.04035,-0.391188 0.05732,-0.58701 l 2.015132,-1.247397 C 47.875716,24.464587 48,24.241236 48,24.00093 48,23.760622 47.876187,23.537284 47.672092,23.411169 Z M 34.184826,40.127662 c -0.769547,-0.166015 -1.258885,-0.924542 -1.093786,-1.696369 0.164649,-0.770908 0.922724,-1.261613 1.691812,-1.095599 0.76955,0.164649 1.259804,0.924541 1.094705,1.694991 -0.165097,0.770452 -0.923641,1.261614 -1.692731,1.096977 z M 33.50012,35.4967 c -0.702133,-0.150426 -1.392801,0.296256 -1.543225,0.999752 l -0.715433,3.338621 c -2.207749,1.002045 -4.65948,1.558787 -7.241457,1.558787 -2.641139,0 -5.146069,-0.584257 -7.39326,-1.628952 L 15.89177,36.426287 c -0.150425,-0.702579 -0.841092,-1.150174 -1.542764,-0.999294 l -2.947492,0.63287 C 10.854392,35.4967 10.345335,34.896849 9.8775523,34.263521 H 24.219221 c 0.162346,0 0.270578,-0.02934 0.270578,-0.177018 V 29.01345 c 0,-0.147675 -0.108224,-0.177018 -0.270578,-0.177018 h -4.194452 v -3.215717 h 4.536573 c 0.414128,0 2.214174,0.118311 2.789729,2.419125 0.180238,0.707622 0.576013,3.009345 0.846596,3.746317 0.269662,0.8264 1.367576,2.477368 2.537491,2.477368 h 7.146527 c 0.08116,0 0.167848,-0.0092 0.259117,-0.02567 -0.495759,0.673685 -1.039672,1.31114 -1.625319,1.906864 z m -19.835822,4.561255 c -0.769547,0.166014 -1.527171,-0.324691 -1.692729,-1.095601 -0.164649,-0.772284 0.324697,-1.530355 1.094244,-1.696367 0.769547,-0.164649 1.527632,0.326064 1.692731,1.096975 0.164629,0.770452 -0.325153,1.529896 -1.094246,1.694993 z M 8.2238029,17.996915 c 0.3191931,0.720464 -0.0055,1.564749 -0.7250633,1.883478 -0.7195594,0.319645 -1.5615684,-0.0055 -1.8807614,-0.726425 -0.3191931,-0.720922 0.0055,-1.563832 0.7250633,-1.883477 0.7200199,-0.319187 1.5615704,0.0055 1.8807614,0.726424 z M 6.5517097,21.96061 9.6221078,20.59627 C 10.277921,20.305057 10.574183,19.536441 10.282964,18.879265 L 9.6505403,17.449345 H 12.137585 V 28.659406 H 7.1199264 C 6.6847067,27.129512 6.4512738,25.514775 6.4512738,23.845922 c 0,-0.636997 0.034397,-1.266657 0.10044,-1.885312 z M 20.025685,20.87189 v -3.304226 h 5.922496 c 0.305895,0 2.160056,0.353582 2.160056,1.739935 0,1.151091 -1.422151,1.563833 -2.591608,1.563833 h -5.490944 z m 21.523508,2.974032 c 0,0.438423 -0.0161,0.872261 -0.04815,1.302888 h -1.800505 c -0.180238,0 -0.252694,0.118311 -0.252694,0.29488 v 0.826861 c 0,1.946305 -1.097453,2.369594 -2.059161,2.477366 -0.915846,0.103191 -1.931209,-0.383392 -2.05641,-0.943802 -0.540245,-3.038695 -1.440496,-3.687617 -2.862188,-4.808899 1.764274,-1.120364 3.600091,-2.773164 3.600091,-4.985459 0,-2.388857 -1.637696,-3.89353 -2.753954,-4.63142 -1.566155,-1.032314 -3.300161,-1.239142 -3.767944,-1.239142 H 10.927315 c 2.525108,-2.8181077 5.94726,-4.8144007 9.817932,-5.5408272 l 2.194911,2.3026401 c 0.496217,0.5195963 1.318045,0.538857 1.837193,0.042181 L 27.23321,6.5942312 c 5.146069,0.9580194 9.502868,4.1613508 12.01376,8.5561328 l -1.681267,3.797222 c -0.290298,0.657177 0.0059,1.425794 0.661317,1.717005 l 3.236875,1.437717 c 0.05596,0.574627 0.0853,1.155217 0.0853,1.743603 z M 22.941073,4.6396793 c 0.568675,-0.5448174 1.470765,-0.5232643 2.015134,0.046318 0.543454,0.5709595 0.522816,1.4739457 -0.04724,2.0183066 C 24.340295,7.249123 23.438209,7.2280263 22.893836,6.6575172 22.350843,6.0874767 22.371481,5.1844885 22.941071,4.6396691 Z M 39.625321,18.066164 c 0.318735,-0.720463 1.160744,-1.045612 1.880305,-0.725966 0.719559,0.319186 1.044256,1.163013 0.725063,1.883477 -0.318734,0.720923 -1.160743,1.04607 -1.880763,0.726425 -0.71864,-0.319187 -1.04334,-1.162555 -0.724605,-1.883936 z"
     style="stroke-width:0.458607;fill:#f74900;fill-opacity:1" /></svg>
